<?xml version="1.0" encoding="UTF-8" standalone="no"?>
<!DOCTYPE svg PUBLIC "-//W3C//DTD SVG 1.1//EN" "http://www.w3.org/Graphics/SVG/1.1/DTD/svg11.dtd">
<svg width="100%" height="100%" viewBox="0 0 138 71" version="1.1" xmlns="http://www.w3.org/2000/svg" xmlns:xlink="http://www.w3.org/1999/xlink" xml:space="preserve" xmlns:serif="http://www.serif.com/" style="fill-rule:evenodd;clip-rule:evenodd;stroke-linecap:round;stroke-linejoin:round;">
    <g id="Design">
        <g id="Home">
            <g id="Logo">
                <g>
                    <g transform="matrix(1,7.65714e-16,7.65714e-16,-1,0.241651,70.1225)">
                        <g id="Dev-Samurai">
                            <g id="g10">
                                <g>
                                    <g id="g12">
                                        <g id="g14-Clipped">
                                            <g id="g14">
                                                <g id="g20" transform="matrix(1,0,0,1,16.4294,52.5491)">
                                                    <path id="path22" d="M2.456,14.811C2.456,14.811 6.801,19.765 13.254,14.327C16.123,11.909 15.918,9.702 16.513,6.976C17.144,4.073 21.084,0.3 21.084,0.3L13.546,5.476L15.442,1.51C15.442,1.51 2.213,3.929 0.605,7.797C-0.998,11.667 2.456,14.811 2.456,14.811" style="fill:white;fill-rule:nonzero;"/>
                                                </g>
                                                <g id="g24" transform="matrix(1,0,0,1,16.4294,52.5491)">
                                                    <path id="path26" d="M2.456,14.811C2.456,14.811 6.801,19.765 13.254,14.327C16.123,11.909 15.918,9.702 16.513,6.976C17.144,4.073 21.084,0.3 21.084,0.3L13.546,5.476L15.442,1.51C15.442,1.51 2.213,3.929 0.605,7.797C-0.998,11.667 2.456,14.811 2.456,14.811Z" style="fill:none;stroke:white;stroke-width:1.34px;"/>
                                                </g>
                                                <g id="g28" transform="matrix(1,0,0,1,3.75699,0.239024)">
                                                    <path id="path30" d="M10.838,47.032C0.845,42.349 0.261,31.819 0.261,31.819L1.76,17.01L2.634,6.853C2.634,6.853 6.542,2.367 15.543,0.238L15.745,0.202L24.353,0.202L24.486,0.227C33.486,2.356 37.397,6.841 37.397,6.841L38.27,16.996L39.65,31.819C39.65,31.819 39.067,42.21 29.274,46.938" style="fill:none;stroke:white;stroke-width:2.57px;"/>
                                                </g>
                                                <g id="g32" transform="matrix(1,0,0,1,9.62632,8.07074)">
                                                    <path id="path34" d="M0,9.555L0.78,1.043L12.259,0.17L12.259,5.978L0,9.555Z" style="fill:white;fill-rule:nonzero;"/>
                                                </g>
                                                <g id="g36" transform="matrix(1,0,0,1,9.62632,8.07074)">
                                                    <path id="path38" d="M0,9.555L0.78,1.043L12.259,0.17L12.259,5.978L0,9.555Z" style="fill:none;stroke:white;stroke-width:1.34px;"/>
                                                </g>
                                                <g id="g40" transform="matrix(1,0,0,1,26.0663,8.18207)">
                                                    <path id="path42" d="M12.066,7.22L11.576,1.027L0.099,0.154L0.099,5.96L12.066,7.22Z" style="fill:white;fill-rule:nonzero;"/>
                                                </g>
                                                <g id="g44" transform="matrix(1,0,0,1,26.0663,8.18207)">
                                                    <path id="path46" d="M12.066,7.22L11.576,1.027L0.099,0.154L0.099,5.96L12.066,7.22Z" style="fill:none;stroke:white;stroke-width:1.34px;"/>
                                                </g>
                                                <g id="g48" transform="matrix(1,0,0,1,5.70995,13.2096)">
                                                    <path id="path50" d="M0,2.071L4.281,0.136" style="fill:none;stroke:white;stroke-width:2.57px;"/>
                                                </g>
                                                <g id="g52" transform="matrix(1,0,0,1,38.0342,12.5947)">
                                                    <path id="path54" d="M0,0L3.796,3.093" style="fill:none;stroke:white;stroke-width:2.57px;"/>
                                                </g>
                                                <g id="g56" transform="matrix(1,0,0,1,22.2733,10.7745)">
                                                    <path id="path58" d="M0,0.85L3.794,0.85" style="fill:none;stroke:white;stroke-width:2.57px;"/>
                                                </g>
                                                <g id="g60" transform="matrix(1,0,0,1,39.8969,16.8139)">
                                                    <path id="path62" d="M3.684,15.925C4.395,15.305 2.126,12.328 1.669,11.816C0.013,9.953 0.029,10.988 0.856,7.951C1.038,7.284 2.719,0.033 2.18,0.013C8.765,0.28 8.015,18.583 3.684,15.925" style="fill:white;fill-rule:nonzero;"/>
                                                </g>
                                                <g id="g64" transform="matrix(1,0,0,1,39.8969,16.8139)">
                                                    <path id="path66" d="M3.684,15.925C4.395,15.305 2.126,12.328 1.669,11.816C0.013,9.953 0.029,10.988 0.856,7.951C1.038,7.284 2.719,0.033 2.18,0.013C8.765,0.28 8.015,18.583 3.684,15.925Z" style="fill:none;stroke:white;stroke-width:1.34px;stroke-linecap:butt;stroke-linejoin:miter;"/>
                                                </g>
                                                <g id="g68" transform="matrix(1,0,0,1,0.154233,16.8139)">
                                                    <path id="path70" d="M3.684,15.925C2.976,15.305 5.247,12.331 5.699,11.816C7.354,9.953 7.342,10.988 6.513,7.951C6.332,7.284 4.652,0.033 5.191,0.014C-1.393,0.28 -0.646,18.586 3.684,15.925" style="fill:white;fill-rule:nonzero;"/>
                                                </g>
                                                <g id="g72" transform="matrix(1,0,0,1,0.154233,16.8139)">
                                                    <path id="path74" d="M3.684,15.925C2.976,15.305 5.247,12.331 5.699,11.816C7.354,9.953 7.342,10.988 6.513,7.951C6.332,7.284 4.652,0.033 5.191,0.014C-1.393,0.28 -0.646,18.586 3.684,15.925Z" style="fill:none;stroke:white;stroke-width:1.34px;stroke-linecap:butt;stroke-linejoin:miter;"/>
                                                </g>
                                                <g id="g76" transform="matrix(1,0,0,1,14.5579,39.9573)">
                                                    <path id="path78" d="M18.472,7.22C17.385,3.181 13.679,0.21 9.277,0.21C4.831,0.21 1.096,3.227 0.036,7.314L0.036,7.32C2.365,8.412 5.211,9.193 8.694,9.441L9.62,9.441C13.192,9.186 16.108,8.365 18.472,7.22" style="fill:white;fill-rule:nonzero;"/>
                                                </g>
                                                <g id="g80" transform="matrix(1,0,0,1,14.5579,39.9573)">
                                                    <path id="path82" d="M18.472,7.22C17.385,3.181 13.679,0.21 9.277,0.21C4.831,0.21 1.096,3.227 0.036,7.314L0.036,7.32C2.365,8.412 5.211,9.193 8.694,9.441L9.62,9.441C13.192,9.186 16.108,8.365 18.472,7.22Z" style="fill:none;stroke:white;stroke-width:2.57px;stroke-linecap:butt;stroke-linejoin:miter;"/>
                                                </g>
                                                <g id="g84" transform="matrix(1,0,0,1,21.4424,46.8343)">
                                                    <path id="path86" d="M4.431,0.85C4.431,0.85 3.336,0.245 2.268,0.245C1.025,0.245 0.152,0.85 0.152,0.85L0.152,15.843L4.431,15.843L4.431,0.85Z" style="fill:none;stroke:white;stroke-width:2.57px;stroke-linecap:butt;stroke-linejoin:miter;"/>
                                                </g>
                                                <g id="g88" transform="matrix(1,0,0,1,21.4081,51.3596)">
                                                    <path id="path90" d="M4.431,2.071L0.371,0.088L3.996,2.78L4.431,2.071Z" style="fill:white;fill-rule:nonzero;"/>
                                                </g>
                                                <g id="g92" transform="matrix(1,0,0,1,21.6892,53.8338)">
                                                    <path id="path94" d="M0,2.071L3.988,0.235" style="fill:none;stroke:white;stroke-width:1.34px;stroke-linecap:butt;stroke-linejoin:miter;"/>
                                                </g>
                                                <g id="g96" transform="matrix(1,0,0,1,21.5937,55.711)">
                                                    <path id="path98" d="M0,0L4.183,3.582" style="fill:none;stroke:white;stroke-width:1.34px;stroke-linecap:butt;stroke-linejoin:miter;"/>
                                                </g>
                                                <g id="g100" transform="matrix(1,0,0,1,21.4562,58.6891)">
                                                    <path id="path102" d="M4.058,0L0.334,2.416L4.447,0.736L4.058,0Z" style="fill:white;fill-rule:nonzero;"/>
                                                </g>
                                            </g>
                                        </g>
                                    </g>
                                </g>
                            </g>
                        </g>
                    </g>
                    <g transform="matrix(1,0,0,1,54.4,32.8)">
                        <g id="SAMURAI">
                            <g>
                                <g transform="matrix(20.8,0,0,20.8,0,0)">
                                    <path d="M0.529,-0.51C0.528,-0.541 0.521,-0.567 0.51,-0.59C0.498,-0.613 0.482,-0.632 0.462,-0.647C0.442,-0.662 0.418,-0.674 0.391,-0.682C0.363,-0.689 0.333,-0.693 0.3,-0.693C0.28,-0.693 0.259,-0.691 0.236,-0.686C0.213,-0.681 0.191,-0.673 0.172,-0.662C0.152,-0.65 0.136,-0.634 0.123,-0.615C0.11,-0.595 0.104,-0.57 0.104,-0.541C0.104,-0.512 0.111,-0.489 0.125,-0.471C0.139,-0.453 0.157,-0.439 0.18,-0.428C0.203,-0.417 0.229,-0.408 0.258,-0.401C0.287,-0.394 0.317,-0.388 0.347,-0.382C0.378,-0.376 0.408,-0.369 0.437,-0.361C0.466,-0.352 0.492,-0.341 0.515,-0.327C0.538,-0.312 0.556,-0.294 0.57,-0.271C0.584,-0.248 0.591,-0.219 0.591,-0.184C0.591,-0.147 0.583,-0.115 0.567,-0.09C0.551,-0.065 0.531,-0.044 0.507,-0.028C0.482,-0.012 0.455,0 0.426,0.007C0.396,0.014 0.367,0.017 0.34,0.017C0.298,0.017 0.259,0.013 0.222,0.004C0.185,-0.006 0.153,-0.02 0.126,-0.041C0.099,-0.061 0.077,-0.087 0.062,-0.119C0.046,-0.151 0.038,-0.19 0.039,-0.236L0.083,-0.236C0.081,-0.197 0.087,-0.164 0.1,-0.137C0.113,-0.11 0.132,-0.087 0.156,-0.07C0.179,-0.053 0.207,-0.04 0.239,-0.033C0.271,-0.025 0.305,-0.021 0.34,-0.021C0.361,-0.021 0.384,-0.024 0.409,-0.029C0.433,-0.034 0.455,-0.043 0.476,-0.056C0.496,-0.069 0.513,-0.085 0.527,-0.106C0.54,-0.127 0.547,-0.153 0.547,-0.184C0.547,-0.214 0.54,-0.239 0.526,-0.258C0.512,-0.277 0.494,-0.292 0.471,-0.304C0.448,-0.315 0.422,-0.325 0.393,-0.332C0.364,-0.339 0.334,-0.345 0.303,-0.351C0.273,-0.357 0.243,-0.364 0.214,-0.372C0.185,-0.38 0.159,-0.391 0.136,-0.405C0.113,-0.418 0.095,-0.436 0.081,-0.458C0.067,-0.479 0.06,-0.507 0.06,-0.541C0.06,-0.575 0.067,-0.604 0.082,-0.629C0.096,-0.653 0.115,-0.673 0.138,-0.688C0.161,-0.703 0.186,-0.713 0.215,-0.721C0.244,-0.728 0.272,-0.731 0.3,-0.731C0.337,-0.731 0.372,-0.727 0.405,-0.719C0.437,-0.71 0.465,-0.697 0.49,-0.68C0.514,-0.662 0.533,-0.639 0.548,-0.611C0.563,-0.583 0.571,-0.549 0.573,-0.51L0.529,-0.51Z" style="fill:white;fill-rule:nonzero;"/>
                                </g>
                                <g transform="matrix(20.8,0,0,20.8,13.0708,0)">
                                    <path d="M0.275,-0.714L0.323,-0.714L0.605,0L0.558,0L0.468,-0.229L0.126,-0.229L0.035,0L-0.012,0L0.275,-0.714ZM0.454,-0.267L0.301,-0.671L0.299,-0.671L0.14,-0.267L0.454,-0.267Z" style="fill:white;fill-rule:nonzero;"/>
                                </g>
                                <g transform="matrix(20.8,0,0,20.8,25.372,0)">
                                    <path d="M0.063,-0.714L0.126,-0.714L0.405,-0.049L0.407,-0.049L0.683,-0.714L0.746,-0.714L0.746,0L0.702,0L0.702,-0.66L0.7,-0.66L0.428,0L0.384,0L0.109,-0.66L0.107,-0.66L0.107,0L0.063,0L0.063,-0.714Z" style="fill:white;fill-rule:nonzero;"/>
                                </g>
                                <g transform="matrix(20.8,0,0,20.8,42.1659,0)">
                                    <path d="M0.107,-0.714L0.107,-0.286C0.107,-0.272 0.108,-0.256 0.109,-0.237C0.11,-0.218 0.114,-0.199 0.119,-0.18C0.124,-0.16 0.132,-0.14 0.142,-0.122C0.151,-0.102 0.164,-0.086 0.181,-0.071C0.198,-0.056 0.218,-0.044 0.243,-0.035C0.267,-0.026 0.296,-0.021 0.331,-0.021C0.375,-0.021 0.412,-0.027 0.442,-0.04C0.471,-0.052 0.495,-0.07 0.514,-0.093C0.532,-0.116 0.545,-0.143 0.553,-0.176C0.561,-0.209 0.565,-0.245 0.565,-0.286L0.565,-0.714L0.609,-0.714L0.609,-0.286C0.609,-0.243 0.604,-0.204 0.596,-0.167C0.587,-0.13 0.571,-0.098 0.55,-0.071C0.529,-0.044 0.5,-0.022 0.465,-0.007C0.429,0.009 0.384,0.017 0.331,0.017C0.289,0.017 0.253,0.012 0.223,0.001C0.193,-0.01 0.168,-0.024 0.149,-0.041C0.129,-0.058 0.113,-0.077 0.102,-0.099C0.091,-0.121 0.082,-0.143 0.076,-0.166C0.07,-0.188 0.066,-0.21 0.065,-0.231C0.064,-0.252 0.063,-0.27 0.063,-0.286L0.063,-0.714L0.107,-0.714Z" style="fill:white;fill-rule:nonzero;"/>
                                </g>
                                <g transform="matrix(20.8,0,0,20.8,56.1103,0)">
                                    <path d="M0.063,-0.714L0.361,-0.714C0.392,-0.714 0.422,-0.711 0.449,-0.705C0.476,-0.698 0.5,-0.688 0.521,-0.674C0.542,-0.659 0.558,-0.64 0.57,-0.617C0.581,-0.594 0.587,-0.565 0.587,-0.53C0.587,-0.482 0.574,-0.442 0.547,-0.409C0.52,-0.376 0.482,-0.355 0.434,-0.347L0.434,-0.345C0.467,-0.341 0.493,-0.332 0.512,-0.319C0.531,-0.306 0.545,-0.289 0.554,-0.27C0.563,-0.251 0.569,-0.229 0.572,-0.206C0.575,-0.183 0.576,-0.159 0.576,-0.136L0.576,-0.095C0.576,-0.082 0.577,-0.069 0.578,-0.058C0.579,-0.046 0.582,-0.035 0.585,-0.025C0.588,-0.015 0.592,-0.007 0.597,0L0.548,0C0.539,-0.017 0.534,-0.036 0.533,-0.059C0.532,-0.081 0.531,-0.104 0.531,-0.128C0.531,-0.152 0.53,-0.176 0.528,-0.2C0.526,-0.223 0.52,-0.244 0.509,-0.263C0.498,-0.282 0.482,-0.297 0.459,-0.308C0.436,-0.319 0.403,-0.325 0.361,-0.325L0.107,-0.325L0.107,0L0.063,0L0.063,-0.714ZM0.361,-0.363C0.387,-0.363 0.411,-0.366 0.434,-0.373C0.456,-0.379 0.475,-0.389 0.491,-0.402C0.507,-0.415 0.52,-0.432 0.529,-0.453C0.538,-0.474 0.543,-0.498 0.543,-0.527C0.543,-0.554 0.538,-0.577 0.528,-0.596C0.518,-0.615 0.505,-0.63 0.488,-0.642C0.471,-0.654 0.452,-0.663 0.43,-0.668C0.408,-0.673 0.385,-0.676 0.361,-0.676L0.107,-0.676L0.107,-0.363L0.361,-0.363Z" style="fill:white;fill-rule:nonzero;"/>
                                </g>
                                <g transform="matrix(20.8,0,0,20.8,69.1811,0)">
                                    <path d="M0.275,-0.714L0.323,-0.714L0.605,0L0.558,0L0.468,-0.229L0.126,-0.229L0.035,0L-0.012,0L0.275,-0.714ZM0.454,-0.267L0.301,-0.671L0.299,-0.671L0.14,-0.267L0.454,-0.267Z" style="fill:white;fill-rule:nonzero;"/>
                                </g>
                                <g transform="matrix(20.8,0,0,20.8,81.4823,0)">
                                    <rect x="0.063" y="-0.714" width="0.044" height="0.714" style="fill:white;fill-rule:nonzero;"/>
                                </g>
                            </g>
                        </g>
                    </g>
                    <g transform="matrix(1,0,0,1,54.4,60.2)">
                        <g id="Books">
                            <g>
                                <g transform="matrix(22.4,0,0,22.4,0,0)">
                                    <path d="M0.868,-0.64C0.868,-0.583 0.848,-0.535 0.808,-0.494C0.768,-0.452 0.71,-0.423 0.633,-0.405C0.674,-0.394 0.706,-0.375 0.727,-0.35C0.748,-0.324 0.759,-0.294 0.759,-0.261C0.759,-0.208 0.743,-0.163 0.71,-0.124C0.677,-0.085 0.628,-0.056 0.565,-0.035C0.502,-0.014 0.425,-0.003 0.336,-0.003C0.303,-0.003 0.276,-0.004 0.256,-0.006C0.255,0.013 0.247,0.027 0.232,0.036C0.217,0.045 0.197,0.05 0.173,0.05C0.149,0.05 0.133,0.045 0.124,0.034C0.115,0.023 0.111,0.008 0.112,-0.013C0.118,-0.106 0.13,-0.204 0.147,-0.307C0.164,-0.409 0.186,-0.508 0.213,-0.603C0.218,-0.62 0.227,-0.631 0.241,-0.638C0.255,-0.645 0.273,-0.648 0.296,-0.648C0.337,-0.648 0.357,-0.637 0.357,-0.614C0.357,-0.605 0.355,-0.594 0.351,-0.582C0.334,-0.53 0.316,-0.46 0.299,-0.371C0.282,-0.282 0.269,-0.197 0.262,-0.116C0.294,-0.113 0.32,-0.112 0.34,-0.112C0.433,-0.112 0.502,-0.126 0.546,-0.153C0.589,-0.18 0.611,-0.214 0.611,-0.256C0.611,-0.285 0.599,-0.31 0.574,-0.33C0.549,-0.35 0.507,-0.361 0.448,-0.363C0.435,-0.364 0.425,-0.367 0.42,-0.373C0.415,-0.379 0.412,-0.389 0.412,-0.402C0.412,-0.421 0.416,-0.437 0.424,-0.449C0.432,-0.461 0.447,-0.467 0.468,-0.468C0.515,-0.469 0.558,-0.476 0.597,-0.489C0.635,-0.502 0.665,-0.52 0.687,-0.543C0.709,-0.566 0.72,-0.592 0.72,-0.623C0.72,-0.662 0.701,-0.692 0.663,-0.715C0.625,-0.737 0.567,-0.748 0.488,-0.748C0.417,-0.748 0.348,-0.739 0.281,-0.721C0.214,-0.702 0.158,-0.679 0.111,-0.651C0.09,-0.638 0.072,-0.632 0.057,-0.632C0.045,-0.632 0.036,-0.636 0.03,-0.645C0.023,-0.653 0.02,-0.663 0.02,-0.676C0.02,-0.693 0.024,-0.707 0.031,-0.719C0.038,-0.731 0.054,-0.745 0.081,-0.76C0.137,-0.792 0.203,-0.817 0.278,-0.835C0.353,-0.853 0.43,-0.862 0.509,-0.862C0.63,-0.862 0.72,-0.842 0.779,-0.801C0.838,-0.76 0.868,-0.707 0.868,-0.64Z" style="fill:white;fill-rule:nonzero;"/>
                                </g>
                                <g transform="matrix(22.4,0,0,22.4,17.7023,0)">
                                    <path d="M0.558,-0.307C0.567,-0.307 0.573,-0.303 0.578,-0.294C0.583,-0.285 0.585,-0.274 0.585,-0.261C0.585,-0.229 0.575,-0.21 0.556,-0.204C0.516,-0.19 0.472,-0.182 0.424,-0.18C0.411,-0.124 0.386,-0.079 0.349,-0.046C0.312,-0.012 0.269,0.005 0.222,0.005C0.182,0.005 0.148,-0.005 0.12,-0.024C0.091,-0.043 0.07,-0.069 0.055,-0.101C0.04,-0.133 0.033,-0.168 0.033,-0.205C0.033,-0.256 0.043,-0.301 0.062,-0.341C0.081,-0.38 0.108,-0.411 0.142,-0.434C0.176,-0.456 0.214,-0.467 0.255,-0.467C0.306,-0.467 0.347,-0.45 0.378,-0.415C0.409,-0.38 0.427,-0.336 0.432,-0.285C0.463,-0.287 0.501,-0.294 0.544,-0.305C0.549,-0.306 0.554,-0.307 0.558,-0.307ZM0.23,-0.101C0.251,-0.101 0.27,-0.11 0.286,-0.127C0.301,-0.144 0.312,-0.169 0.317,-0.202C0.296,-0.216 0.281,-0.234 0.27,-0.257C0.259,-0.28 0.253,-0.304 0.253,-0.329C0.253,-0.34 0.254,-0.35 0.256,-0.361L0.251,-0.361C0.224,-0.361 0.202,-0.348 0.185,-0.323C0.167,-0.297 0.158,-0.261 0.158,-0.214C0.158,-0.177 0.165,-0.149 0.18,-0.13C0.194,-0.111 0.211,-0.101 0.23,-0.101Z" style="fill:white;fill-rule:nonzero;"/>
                                </g>
                                <g transform="matrix(22.4,0,0,22.4,27.7661,0)">
                                    <path d="M0.558,-0.307C0.567,-0.307 0.573,-0.303 0.578,-0.294C0.583,-0.285 0.585,-0.274 0.585,-0.261C0.585,-0.229 0.575,-0.21 0.556,-0.204C0.516,-0.19 0.472,-0.182 0.424,-0.18C0.411,-0.124 0.386,-0.079 0.349,-0.046C0.312,-0.012 0.269,0.005 0.222,0.005C0.182,0.005 0.148,-0.005 0.12,-0.024C0.091,-0.043 0.07,-0.069 0.055,-0.101C0.04,-0.133 0.033,-0.168 0.033,-0.205C0.033,-0.256 0.043,-0.301 0.062,-0.341C0.081,-0.38 0.108,-0.411 0.142,-0.434C0.176,-0.456 0.214,-0.467 0.255,-0.467C0.306,-0.467 0.347,-0.45 0.378,-0.415C0.409,-0.38 0.427,-0.336 0.432,-0.285C0.463,-0.287 0.501,-0.294 0.544,-0.305C0.549,-0.306 0.554,-0.307 0.558,-0.307ZM0.23,-0.101C0.251,-0.101 0.27,-0.11 0.286,-0.127C0.301,-0.144 0.312,-0.169 0.317,-0.202C0.296,-0.216 0.281,-0.234 0.27,-0.257C0.259,-0.28 0.253,-0.304 0.253,-0.329C0.253,-0.34 0.254,-0.35 0.256,-0.361L0.251,-0.361C0.224,-0.361 0.202,-0.348 0.185,-0.323C0.167,-0.297 0.158,-0.261 0.158,-0.214C0.158,-0.177 0.165,-0.149 0.18,-0.13C0.194,-0.111 0.211,-0.101 0.23,-0.101Z" style="fill:white;fill-rule:nonzero;"/>
                                </g>
                                <g transform="matrix(22.4,0,0,22.4,37.83,0)">
                                    <path d="M0.626,-0.223C0.635,-0.223 0.642,-0.219 0.647,-0.211C0.652,-0.203 0.654,-0.192 0.654,-0.178C0.654,-0.151 0.648,-0.131 0.635,-0.116C0.605,-0.079 0.575,-0.05 0.544,-0.028C0.513,-0.006 0.477,0.005 0.435,0.005C0.384,0.005 0.342,-0.01 0.311,-0.039C0.28,-0.068 0.264,-0.107 0.264,-0.156C0.264,-0.182 0.277,-0.201 0.304,-0.212C0.333,-0.225 0.354,-0.238 0.367,-0.253C0.38,-0.267 0.386,-0.284 0.386,-0.305C0.386,-0.317 0.384,-0.326 0.379,-0.332C0.374,-0.338 0.367,-0.341 0.36,-0.341C0.342,-0.341 0.322,-0.328 0.301,-0.302C0.279,-0.276 0.259,-0.243 0.24,-0.202C0.221,-0.161 0.207,-0.118 0.196,-0.075C0.189,-0.044 0.18,-0.023 0.171,-0.012C0.161,0 0.146,0.005 0.125,0.005C0.104,0.005 0.089,-0.003 0.08,-0.018C0.07,-0.033 0.063,-0.056 0.06,-0.087C0.057,-0.118 0.055,-0.164 0.055,-0.225C0.055,-0.328 0.066,-0.435 0.087,-0.546C0.108,-0.657 0.138,-0.751 0.18,-0.827C0.221,-0.902 0.27,-0.94 0.327,-0.94C0.358,-0.94 0.383,-0.927 0.402,-0.901C0.421,-0.874 0.43,-0.84 0.43,-0.798C0.43,-0.731 0.41,-0.661 0.371,-0.589C0.332,-0.516 0.268,-0.432 0.179,-0.335C0.177,-0.3 0.176,-0.265 0.176,-0.228C0.208,-0.311 0.245,-0.372 0.286,-0.41C0.327,-0.447 0.366,-0.466 0.402,-0.466C0.435,-0.466 0.462,-0.455 0.483,-0.432C0.503,-0.409 0.513,-0.381 0.513,-0.348C0.513,-0.311 0.504,-0.278 0.485,-0.247C0.466,-0.216 0.434,-0.189 0.389,-0.165C0.392,-0.147 0.4,-0.133 0.414,-0.122C0.427,-0.111 0.444,-0.105 0.463,-0.105C0.484,-0.105 0.504,-0.113 0.523,-0.129C0.542,-0.145 0.568,-0.172 0.599,-0.209C0.607,-0.218 0.616,-0.223 0.626,-0.223ZM0.306,-0.841C0.294,-0.841 0.281,-0.824 0.266,-0.79C0.251,-0.755 0.237,-0.709 0.224,-0.651C0.21,-0.592 0.199,-0.529 0.19,-0.46C0.231,-0.509 0.266,-0.562 0.293,-0.619C0.32,-0.676 0.333,-0.728 0.333,-0.775C0.333,-0.796 0.331,-0.813 0.326,-0.824C0.321,-0.835 0.315,-0.841 0.306,-0.841Z" style="fill:white;fill-rule:nonzero;"/>
                                </g>
                                <g transform="matrix(22.4,0,0,22.4,49.5515,0)">
                                    <path d="M0.234,0.027C0.199,0.027 0.173,0.019 0.155,0.003C0.136,-0.013 0.127,-0.031 0.127,-0.051C0.127,-0.068 0.133,-0.083 0.146,-0.096C0.159,-0.109 0.177,-0.115 0.202,-0.115C0.211,-0.115 0.221,-0.114 0.233,-0.113C0.244,-0.111 0.253,-0.11 0.259,-0.109C0.258,-0.126 0.255,-0.143 0.248,-0.158C0.241,-0.173 0.232,-0.188 0.221,-0.203C0.21,-0.217 0.2,-0.229 0.191,-0.24C0.17,-0.201 0.15,-0.168 0.13,-0.142C0.109,-0.116 0.087,-0.091 0.063,-0.068C0.051,-0.056 0.038,-0.05 0.025,-0.05C0.014,-0.05 0.006,-0.054 -0.001,-0.062C-0.008,-0.069 -0.011,-0.079 -0.011,-0.09C-0.011,-0.103 -0.006,-0.116 0.003,-0.127L0.016,-0.143C0.053,-0.188 0.08,-0.226 0.099,-0.255C0.111,-0.274 0.123,-0.297 0.136,-0.324C0.148,-0.351 0.164,-0.387 0.184,-0.433C0.197,-0.462 0.223,-0.477 0.263,-0.477C0.282,-0.477 0.295,-0.475 0.302,-0.472C0.309,-0.469 0.313,-0.463 0.313,-0.456C0.313,-0.452 0.312,-0.446 0.309,-0.437C0.306,-0.428 0.303,-0.42 0.298,-0.411C0.286,-0.387 0.28,-0.367 0.28,-0.35C0.28,-0.34 0.284,-0.329 0.291,-0.317C0.298,-0.305 0.308,-0.29 0.323,-0.272C0.344,-0.244 0.361,-0.22 0.372,-0.201C0.383,-0.181 0.388,-0.159 0.388,-0.136C0.388,-0.108 0.382,-0.082 0.369,-0.057C0.356,-0.032 0.337,-0.011 0.314,0.004C0.291,0.019 0.264,0.027 0.234,0.027Z" style="fill:white;fill-rule:nonzero;"/>
                                </g>
                            </g>
                        </g>
                    </g>
                </g>
            </g>
        </g>
    </g>
</svg>
