<?xml version="1.0" encoding="UTF-8"?>
<svg width="278px" height="278px" viewBox="0 0 278 278" version="1.1" xmlns="http://www.w3.org/2000/svg" xmlns:xlink="http://www.w3.org/1999/xlink">
    <!-- Generator: Sketch 63.1 (92452) - https://sketch.com -->
    <title>Scan Mark</title>
    <desc>Created with Sketch.</desc>
    <g id="Symbols" stroke="none" stroke-width="1" fill="none" fill-rule="evenodd">
        <g id="Scan-Mark" fill="#FFFFFF" fill-rule="nonzero">
            <path d="M5,203.5 L5,263.5 C5,268.656245 9.10789389,272.853039 14.2295213,272.996224 L14.5,273 L72.5,273 L72.5,278 L14.5,278 C6.59724124,278 0.171101224,271.677844 0.00336048213,263.815311 L0,263.5 L0,203.5 L5,203.5 Z M278,203.5 L278,263.5 C278,271.402759 271.677844,277.828899 263.815311,277.99664 L263.5,278 L205.5,278 L205.5,273 L263.5,273 C268.656245,273 272.853039,268.892106 272.996224,263.770479 L273,263.5 L273,203.5 L278,203.5 Z M72.5,0 L72.5,5 L14.5,5 C9.34375531,5 5.14696065,9.10789389 5.00377636,14.2295213 L5,14.5 L5,71.5 L0,71.5 L0,14.5 C0,6.59724124 6.32215635,0.171101224 14.1846885,0.00336048213 L14.5,0 L72.5,0 Z M263.5,0 C271.402759,0 277.828899,6.32215635 277.99664,14.1846885 L278,14.5 L278,71.5 L273,71.5 L273,14.5 C273,9.34375531 268.892106,5.14696065 263.770479,5.00377636 L263.5,5 L205.5,5 L205.5,0 L263.5,0 Z"></path>
        </g>
    </g>
</svg>